<svg xmlns="http://www.w3.org/2000/svg" width="1080" height="2280" viewBox="0 0 1080 2280">
<defs><linearGradient id="snerv" x1="0" y1="0" x2="0" y2="1">
<stop offset="0" stop-color="#121826"/>
<stop offset="1" stop-color="#0A0E1A"/></linearGradient></defs>
<rect width="1080" height="2280" fill="url(#snerv)"/>
<g transform="translate(284 760) scale(1.0)">
<polygon points="256,36 446,146 446,366 256,476 66,366 66,146" fill="none" stroke="#FF7A00" stroke-opacity=".5" stroke-width="4"/><path d="M44,120 V44 H120 M392,44 H468 V120 M468,392 V468 H392 M120,468 H44 V392" fill="none" stroke="#9CFF00" stroke-width="6"/>
<circle cx="256" cy="256" r="168" fill="none" stroke="#FF7A00" stroke-opacity="0.22" stroke-width="3"/>
<circle cx="256" cy="256" r="124" fill="none" stroke="#FF7A00" stroke-opacity="0.35" stroke-width="3"/>
<line x1="256" y1="256" x2="256" y2="96" stroke="#FF7A00" stroke-opacity=".55" stroke-width="6"/>
<line x1="256" y1="256" x2="114" y2="338" stroke="#FF7A00" stroke-opacity=".55" stroke-width="6"/>
<line x1="256" y1="256" x2="398" y2="338" stroke="#FF7A00" stroke-opacity=".55" stroke-width="6"/>
<circle cx="256" cy="96" r="22" fill="#0A0E1A" stroke="#FF7A00" stroke-width="6"/>
<circle cx="114" cy="338" r="22" fill="#0A0E1A" stroke="#FF7A00" stroke-width="6"/>
<circle cx="398" cy="338" r="22" fill="#0A0E1A" stroke="#FF7A00" stroke-width="6"/>
<polygon points="256,178 334,256 256,334 178,256" fill="#FF7A00"/>
<polygon points="256,216 296,256 256,296 216,256" fill="#0A0E1A"/>
<circle cx="256" cy="256" r="15" fill="#9CFF00"/>
</g>
<text x="540" y="1500" text-anchor="middle" fill="#E6ECF5" font-family="Menlo,Consolas,monospace" font-size="78" letter-spacing="14">MESHMORE</text>
<text x="540" y="1576" text-anchor="middle" fill="#FF7A00" font-family="Menlo,Consolas,monospace" font-size="40" letter-spacing="26">S N S</text>
<text x="540" y="2160" text-anchor="middle" fill="#E6ECF5" fill-opacity="0.5" font-family="Menlo,Consolas,monospace" font-size="30" letter-spacing="8">NERV TERMINAL</text>
</svg>
