<svg xmlns="http://www.w3.org/2000/svg" viewBox="0 0 360 720" width="100%" style="max-width:380px;height:auto;display:block;background:#000000;border-radius:18px;box-shadow:0 0 0 1px #2a2a26 inset">
<!-- Backdrop -->
<defs>
  <linearGradient id="bg" x1="0" y1="0" x2="0" y2="1">
    <stop offset="0" stop-color="#0E0E0C"/>
    <stop offset="1" stop-color="#000000"/>
  </linearGradient>
</defs>
<rect width="360" height="720" fill="url(#bg)" rx="18"/>
<!-- Status bar -->
<text x="20" y="22" fill="#8a847a" font-size="10"
      font-family="Menlo,monospace">9:41</text>
<text x="340" y="22" text-anchor="end" fill="#8a847a"
      font-size="10" font-family="Menlo,monospace">▲ ▲ ░░</text>
<!-- AppBar -->
<rect x="0" y="32" width="360" height="44" fill="#0E0E0C"/>
<text x="16" y="60" fill="#EDE6D6" font-size="16"
      font-family="Inter,Helvetica,sans-serif" font-weight="500">Hyperlocal grid</text>
<text x="284" y="60" fill="#EDE6D6" font-size="14" font-family="Inter,Helvetica,sans-serif" font-weight="400">⏸</text>
<text x="306" y="60" fill="#8a847a" font-size="11" font-family="Inter,Helvetica,sans-serif" font-weight="400">15s ▼</text>
<text x="340" y="60" fill="#EDE6D6" font-size="14" font-family="Inter,Helvetica,sans-serif" font-weight="400">ⓘ</text>
<text x="16" y="92" fill="#8a847a" font-size="11" font-family="Inter,Helvetica,sans-serif" font-weight="400">8 in fabric · 4 known · 2 contacts · paused</text>
<text x="16" y="116" fill="#8a847a" font-size="10" font-family="Inter,Helvetica,sans-serif" font-weight="400" letter-spacing="1">Range</text>
<line x1="60" y1="130" x2="260" y2="130" stroke="#3b3833" stroke-width="2"/>
<circle cx="60" cy="130" r="3" fill="#8a847a"/>
<circle cx="100" cy="130" r="3" fill="#8a847a"/>
<circle cx="140" cy="130" r="3" fill="#8a847a"/>
<circle cx="180" cy="130" r="3" fill="#8a847a"/>
<circle cx="220" cy="130" r="3" fill="#8a847a"/>
<circle cx="260" cy="130" r="3" fill="#8a847a"/>
<circle cx="260" cy="130" r="7" fill="#EDE6D6"/>
<text x="268" y="134" fill="#EDE6D6" font-size="10" font-family="Inter,Helvetica,sans-serif" font-weight="400" text-anchor="start">Wide · 5 km</text>
<circle cx="180" cy="380" r="43" fill="none" stroke="#3b3833" stroke-opacity=".6"/>
<circle cx="180" cy="380" r="87" fill="none" stroke="#3b3833" stroke-opacity=".6"/>
<circle cx="180" cy="380" r="130" fill="none" stroke="#3b3833" stroke-opacity=".6"/>
<line x1="50" y1="380" x2="310" y2="380" stroke="#3b3833" stroke-opacity=".25"/>
<line x1="180" y1="250" x2="180" y2="510" stroke="#3b3833" stroke-opacity=".25"/>
<rect x="173" y="373" width="14" height="14" fill="#EDE6D6"/>
<circle cx="180" cy="380" r="55" fill="none" stroke="#EDE6D6" stroke-width="1.4" stroke-dasharray="5 6" stroke-opacity=".4"/>
<circle cx="240" cy="320" r="5" fill="#EDE6D6"/>
<circle cx="142" cy="484" r="11" fill="none" stroke="#C8102E" stroke-width="2"/>
<circle cx="142" cy="484" r="5" fill="#EDE6D6"/>
<circle cx="67" cy="315" r="5" fill="#EDE6D6"/>
<circle cx="172" cy="335" r="13" fill="none" stroke="#EDE6D6" stroke-opacity=".55" stroke-width="1.4"/>
<circle cx="172" cy="335" r="5" fill="#EDE6D6"/>
<circle cx="280" cy="464" r="4" fill="#EDE6D6" opacity=".22"/>
<circle cx="238" cy="380" r="5" fill="#EDE6D6"/>
<rect x="14" y="540" width="332" height="64" rx="6" fill="#1a1815" stroke="#3b3833" stroke-opacity=".5"/>
<text x="24" y="558" fill="#8a847a" font-size="10" font-family="Inter,Helvetica,sans-serif" font-weight="400" letter-spacing="3">LEGEND</text>
<text x="24" y="574" fill="#EDE6D6" font-size="10" font-family="Inter,Helvetica,sans-serif" font-weight="400">○ rings · GPS bands → ~5 km outer</text>
<text x="24" y="588" fill="#EDE6D6" font-size="10" font-family="Inter,Helvetica,sans-serif" font-weight="400">● fabric · ⊙ known (pulse) · ◉ fav (blink) · ↺ ripple = channel-msg</text>
<text x="16" y="622" fill="#8a847a" font-size="10" font-family="Inter,Helvetica,sans-serif" font-weight="400">Outer ring ≈ wide (5 km) · tap a node for details</text>
<rect x="0" y="664" width="360" height="56" fill="#0E0E0C" stroke="#3b3833" stroke-opacity=".6" stroke-width="1"/>
<text x="45.0" y="692" fill="#8a847a" font-size="14" text-anchor="middle">⬜</text>
<text x="45.0" y="710" fill="#8a847a" font-size="9" text-anchor="middle" letter-spacing="1">Dashboard</text>
<text x="135.0" y="692" fill="#8a847a" font-size="14" text-anchor="middle">💬</text>
<text x="135.0" y="710" fill="#8a847a" font-size="9" text-anchor="middle" letter-spacing="1">Chat</text>
<text x="225.0" y="692" fill="#EDE6D6" font-size="14" text-anchor="middle">📡</text>
<text x="225.0" y="710" fill="#EDE6D6" font-size="9" text-anchor="middle" letter-spacing="1">Nodes</text>
<text x="315.0" y="692" fill="#8a847a" font-size="14" text-anchor="middle">⚙</text>
<text x="315.0" y="710" fill="#8a847a" font-size="9" text-anchor="middle" letter-spacing="1">Settings</text>
</svg>