<svg xmlns="http://www.w3.org/2000/svg" width="1080" height="2280" viewBox="0 0 1080 2280">
<defs><linearGradient id="srecon" x1="0" y1="0" x2="0" y2="1">
<stop offset="0" stop-color="#0A0A07"/>
<stop offset="1" stop-color="#000000"/></linearGradient></defs>
<rect width="1080" height="2280" fill="url(#srecon)"/>
<g transform="translate(284 760) scale(1.0)">
<path d="M256,256 L256,40 A216,216 0 0 1 432,150 Z" fill="#FFB000" fill-opacity=".12"/><line x1="452" y1="256" x2="480" y2="256" stroke="#FFB000" stroke-width="6"/><line x1="256" y1="452" x2="256" y2="480" stroke="#FFB000" stroke-width="6"/><line x1="60" y1="256" x2="32" y2="256" stroke="#FFB000" stroke-width="6"/><line x1="256" y1="60" x2="256" y2="32" stroke="#FFB000" stroke-width="6"/><circle cx="256" cy="256" r="224" fill="none" stroke="#6E4E00" stroke-width="4"/>
<circle cx="256" cy="256" r="168" fill="none" stroke="#FFB000" stroke-opacity="0.22" stroke-width="3"/>
<circle cx="256" cy="256" r="124" fill="none" stroke="#FFB000" stroke-opacity="0.35" stroke-width="3"/>
<line x1="256" y1="256" x2="256" y2="96" stroke="#FFB000" stroke-opacity=".55" stroke-width="6"/>
<line x1="256" y1="256" x2="114" y2="338" stroke="#FFB000" stroke-opacity=".55" stroke-width="6"/>
<line x1="256" y1="256" x2="398" y2="338" stroke="#FFB000" stroke-opacity=".55" stroke-width="6"/>
<circle cx="256" cy="96" r="22" fill="#000000" stroke="#FFB000" stroke-width="6"/>
<circle cx="114" cy="338" r="22" fill="#000000" stroke="#FFB000" stroke-width="6"/>
<circle cx="398" cy="338" r="22" fill="#000000" stroke="#FFB000" stroke-width="6"/>
<polygon points="256,178 334,256 256,334 178,256" fill="#FFB000"/>
<polygon points="256,216 296,256 256,296 216,256" fill="#000000"/>
<circle cx="256" cy="256" r="15" fill="#B3231F"/>
</g>
<text x="540" y="1500" text-anchor="middle" fill="#FFB000" font-family="Menlo,Consolas,monospace" font-size="78" letter-spacing="14">MESHMORE</text>
<text x="540" y="1576" text-anchor="middle" fill="#FFB000" font-family="Menlo,Consolas,monospace" font-size="40" letter-spacing="26">S N S</text>
<text x="540" y="2160" text-anchor="middle" fill="#FFB000" fill-opacity="0.5" font-family="Menlo,Consolas,monospace" font-size="30" letter-spacing="8">TACTICAL RECON</text>
</svg>
