<svg xmlns="http://www.w3.org/2000/svg" width="512" height="512" viewBox="0 0 512 512">
<defs><linearGradient id="bgseele" x1="0" y1="0" x2="0" y2="1">
<stop offset="0" stop-color="#0E0E0C"/>
<stop offset="1" stop-color="#000000"/></linearGradient></defs>
<rect width="512" height="512" fill="url(#bgseele)"/>
<rect x="243" y="60" width="26" height="392" fill="#EDE6D6" fill-opacity=".10"/><rect x="40" y="40" width="432" height="432" fill="none" stroke="#EDE6D6" stroke-opacity=".35" stroke-width="3"/>
<circle cx="256" cy="256" r="168" fill="none" stroke="#EDE6D6" stroke-opacity="0.22" stroke-width="3"/>
<circle cx="256" cy="256" r="124" fill="none" stroke="#EDE6D6" stroke-opacity="0.35" stroke-width="3"/>
<line x1="256" y1="256" x2="256" y2="96" stroke="#EDE6D6" stroke-opacity=".55" stroke-width="6"/>
<line x1="256" y1="256" x2="114" y2="338" stroke="#EDE6D6" stroke-opacity=".55" stroke-width="6"/>
<line x1="256" y1="256" x2="398" y2="338" stroke="#EDE6D6" stroke-opacity=".55" stroke-width="6"/>
<circle cx="256" cy="96" r="22" fill="#000000" stroke="#EDE6D6" stroke-width="6"/>
<circle cx="114" cy="338" r="22" fill="#000000" stroke="#EDE6D6" stroke-width="6"/>
<circle cx="398" cy="338" r="22" fill="#000000" stroke="#EDE6D6" stroke-width="6"/>
<polygon points="256,178 334,256 256,334 178,256" fill="#EDE6D6"/>
<polygon points="256,216 296,256 256,296 216,256" fill="#000000"/>
<circle cx="256" cy="256" r="15" fill="#C8102E"/>
</svg>
