<svg xmlns="http://www.w3.org/2000/svg" width="1080" height="2280" viewBox="0 0 1080 2280">
<defs><linearGradient id="sdrpop" x1="0" y1="0" x2="0" y2="1">
<stop offset="0" stop-color="#1C1C24"/>
<stop offset="1" stop-color="#101014"/></linearGradient></defs>
<rect width="1080" height="2280" fill="url(#sdrpop)"/>
<g transform="translate(284 760) scale(1.0)">
<line x1="406" y1="256" x2="488" y2="256" stroke="#FF2E88" stroke-width="14" stroke-linecap="round"/><line x1="386" y1="331" x2="457" y2="372" stroke="#D7FF00" stroke-width="14" stroke-linecap="round"/><line x1="331" y1="386" x2="372" y2="457" stroke="#FF2E88" stroke-width="14" stroke-linecap="round"/><line x1="256" y1="406" x2="256" y2="488" stroke="#D7FF00" stroke-width="14" stroke-linecap="round"/><line x1="181" y1="386" x2="140" y2="457" stroke="#FF2E88" stroke-width="14" stroke-linecap="round"/><line x1="126" y1="331" x2="55" y2="372" stroke="#D7FF00" stroke-width="14" stroke-linecap="round"/><line x1="106" y1="256" x2="24" y2="256" stroke="#FF2E88" stroke-width="14" stroke-linecap="round"/><line x1="126" y1="181" x2="55" y2="140" stroke="#D7FF00" stroke-width="14" stroke-linecap="round"/><line x1="181" y1="126" x2="140" y2="55" stroke="#FF2E88" stroke-width="14" stroke-linecap="round"/><line x1="256" y1="106" x2="256" y2="24" stroke="#D7FF00" stroke-width="14" stroke-linecap="round"/><line x1="331" y1="126" x2="372" y2="55" stroke="#FF2E88" stroke-width="14" stroke-linecap="round"/><line x1="386" y1="181" x2="457" y2="140" stroke="#D7FF00" stroke-width="14" stroke-linecap="round"/>
<circle cx="256" cy="256" r="168" fill="none" stroke="#FF2E88" stroke-opacity="0.22" stroke-width="3"/>
<circle cx="256" cy="256" r="124" fill="none" stroke="#FF2E88" stroke-opacity="0.35" stroke-width="3"/>
<line x1="256" y1="256" x2="256" y2="96" stroke="#FF2E88" stroke-opacity=".55" stroke-width="6"/>
<line x1="256" y1="256" x2="114" y2="338" stroke="#FF2E88" stroke-opacity=".55" stroke-width="6"/>
<line x1="256" y1="256" x2="398" y2="338" stroke="#FF2E88" stroke-opacity=".55" stroke-width="6"/>
<circle cx="256" cy="96" r="22" fill="#101014" stroke="#FF2E88" stroke-width="6"/>
<circle cx="114" cy="338" r="22" fill="#101014" stroke="#FF2E88" stroke-width="6"/>
<circle cx="398" cy="338" r="22" fill="#101014" stroke="#FF2E88" stroke-width="6"/>
<polygon points="256,178 334,256 256,334 178,256" fill="#FF2E88"/>
<polygon points="256,216 296,256 256,296 216,256" fill="#101014"/>
<circle cx="256" cy="256" r="15" fill="#D7FF00"/>
</g>
<text x="540" y="1500" text-anchor="middle" fill="#F2F0E6" font-family="Menlo,Consolas,monospace" font-size="78" letter-spacing="14">MESHMORE</text>
<text x="540" y="1576" text-anchor="middle" fill="#FF2E88" font-family="Menlo,Consolas,monospace" font-size="40" letter-spacing="26">S N S</text>
<text x="540" y="2160" text-anchor="middle" fill="#F2F0E6" fill-opacity="0.5" font-family="Menlo,Consolas,monospace" font-size="30" letter-spacing="8">DR POP</text>
</svg>
